# xmcd CD database file
#
# Track frame offsets:
#	150
#	16672
#	31077
#	47065
#	63457
#	73940
#	88442
#	100695
#	104525
#	118262
#	133770
#	147640
#	158320
#	177322
#	186737
#	207350
#	221607
#	237202
#	247500
#	255137
#	275892
#	294852
#	310367
#
# Disc length: 4216 seconds
#
# Revision: 0
# Processed by: cddbd v1.4PL0 Copyright (c) Steve Scherf et al.
# Submitted via: NeoAudio 9.9.9
#
DISCID=56107617
DTITLE=dick farney - reserva especial
DYEAR=1900
DGENRE=Jazz
TTITLE0=the boy next door
TTITLE1=se todos fossem iguais a voce
TTITLE2=what´s new
TTITLE3=lover
TTITLE4=will you still be mine
TTITLE5=i should care
TTITLE6=danny boy
TTITLE7=disparada
TTITLE8=2o concerto de rachmaninoff
TTITLE9=theme for june
TTITLE10=lover - valsa de uma cidade
TTITLE11=i couldn´t sleep a wink
TTITLE12=summertime
TTITLE13=saint louis blues
TTITLE14=disparada
TTITLE15=it might as well be spring
TTITLE16=cheek to cheek
TTITLE17=little girl blue
TTITLE18=se todos fossem iguais a voce
TTITLE19=angel eyes
TTITLE20=satin doll
TTITLE21=autumn leaves
TTITLE22=i couldn´t sleep a wink
EXTD=
EXTT0=
EXTT1=
EXTT2=
EXTT3=
EXTT4=
EXTT5=
EXTT6=
EXTT7=
EXTT8=
EXTT9=
EXTT10=
EXTT11=
EXTT12=
EXTT13=
EXTT14=
EXTT15=
EXTT16=
EXTT17=
EXTT18=
EXTT19=
EXTT20=
EXTT21=
EXTT22=
PLAYORDER=
